<svg width="122" height="40" viewBox="0 0 122 40" fill="none" xmlns="http://www.w3.org/2000/svg">
<path d="M4.90716 4.89371H11.6105C13.1376 4.88146 14.6408 5.27183 15.9675 6.02516C17.2885 6.76878 18.3855 7.85102 19.1446 9.15945C19.9319 10.4947 20.3251 11.9985 20.3244 13.6709C20.3015 16.1594 19.4603 18.5718 17.9293 20.5388C16.7356 22.0608 15.2105 23.2933 13.4688 24.1433C11.7271 24.9932 9.81441 25.4385 7.87481 25.4456H0.520095C0.173444 25.4456 7.86985e-05 25.3061 0 25.0273C0.00431225 24.9642 0.0139814 24.9017 0.028907 24.8403L4.15474 5.513C4.24135 5.09975 4.49214 4.89331 4.90716 4.89371ZM14.9393 14.0445C14.9508 13.2825 14.7637 12.5304 14.3966 11.8618C14.0418 11.2193 13.5094 10.6915 12.8627 10.3408C12.153 9.96381 11.3577 9.77517 10.5535 9.79307H8.6127L6.32538 20.5456H8.26606C9.28062 20.5452 10.2796 20.2974 11.1759 19.824C12.0947 19.3502 12.8996 18.6841 13.5357 17.8715C14.1658 17.0851 14.6064 16.1655 14.8238 15.1831C14.8971 14.808 14.9357 14.4271 14.9393 14.0449V14.0445Z" fill="white"/>
<path d="M25.7602 4.89368H39.5858C39.9145 4.89368 40.0786 5.03272 40.0782 5.31081C40.0742 5.379 40.0646 5.44674 40.0493 5.51332L39.2969 9.05874C39.209 9.46142 38.9634 9.66406 38.5577 9.66406H29.4962L28.7726 13.08H35.6476C36.0339 13.08 36.227 13.2289 36.2267 13.5264C36.2219 13.5897 36.2122 13.6526 36.1978 13.7144L35.5753 16.5683C35.4887 16.9709 35.2238 17.1736 34.7796 17.1736H27.9031L27.1362 20.7045H36.4592C36.8058 20.7045 36.9804 20.8533 36.9804 21.1516C36.9817 21.2047 36.9769 21.2578 36.9661 21.3099L36.1979 24.8409C36.1113 25.2448 35.8653 25.4466 35.4599 25.4463H21.3744C21.0264 25.4463 20.8527 25.3068 20.8532 25.028C20.858 24.965 20.8677 24.9025 20.8821 24.8409L25.0078 5.51367C25.0945 5.09995 25.3453 4.89329 25.7602 4.89368Z" fill="white"/>
<path d="M43.5658 5.05911C43.6955 4.9506 43.86 4.89192 44.0294 4.89372H48.184C48.5115 4.89372 48.6764 5.03268 48.6764 5.31085C48.6718 5.37905 48.6618 5.44678 48.6463 5.51336L45.4475 20.5461H53.1489C53.487 20.5461 53.6562 20.6804 53.6562 20.9488C53.6522 21.017 53.6426 21.0847 53.6273 21.1513L52.8316 24.8406C52.745 25.2445 52.5035 25.4463 52.1068 25.4459H39.6424C39.3041 25.4459 39.135 25.3113 39.135 25.042C39.1389 24.9742 39.1486 24.9069 39.1639 24.8406L43.2897 5.51336C43.3284 5.33562 43.4257 5.1758 43.5658 5.05911Z" fill="white"/>
<path d="M56.7535 4.89368H71.8383C72.1669 4.89368 72.3311 5.03272 72.3307 5.31081C72.3267 5.379 72.317 5.44674 72.3018 5.51332L71.5634 9.01563C71.4768 9.42795 71.23 9.63528 70.8255 9.63528H65.8882L62.6317 24.8406C62.5439 25.2444 62.2982 25.4459 61.8925 25.4459H57.8828C57.536 25.4459 57.3627 25.3065 57.3627 25.0276C57.3669 24.9645 57.3766 24.902 57.3916 24.8406L60.6481 9.63528H55.7411C55.4029 9.63528 55.2339 9.49584 55.2344 9.21697C55.2383 9.14917 55.2479 9.08181 55.2633 9.01563L56.0007 5.51332C56.0877 5.10007 56.3393 4.89368 56.7535 4.89368Z" fill="white"/>
<path d="M78.9329 4.89368H82.3351C82.73 4.89368 82.9623 5.09983 83.0298 5.51332L86.4899 24.8406C86.5007 24.8926 86.5055 24.9457 86.5043 24.9988C86.5043 25.2972 86.3297 25.4459 85.983 25.4459H81.9872C81.5718 25.4459 81.3355 25.2441 81.2782 24.8406L80.8868 22.1306H73.3011L71.7806 24.8406C71.5686 25.2444 71.2504 25.4463 70.8259 25.4459H66.54C66.2702 25.4459 66.1354 25.3598 66.1355 25.1875C66.1484 25.0628 66.1931 24.9436 66.2653 24.8411L77.9337 5.51332C78.1745 5.09983 78.5076 4.89329 78.9329 4.89368ZM80.25 17.6779L79.3519 11.3933L75.8197 17.6779H80.25Z" fill="white"/>
<path d="M99.7051 19.4547C99.6816 19.4854 99.6697 19.5233 99.6716 19.562C99.6735 19.6005 99.6889 19.6371 99.7154 19.6655C99.7418 19.6938 99.7774 19.7117 99.816 19.7163C99.8545 19.721 99.8934 19.7119 99.9257 19.6907L119.409 6.96562C119.517 6.89781 119.612 6.80861 119.685 6.70346C119.759 6.59832 119.81 6.4794 119.836 6.35397C119.861 6.22854 119.861 6.09921 119.835 5.97384C119.809 5.84847 119.758 5.72969 119.684 5.62472C118.598 4.10281 117.191 2.83735 115.559 1.91813C115.46 1.86198 115.361 1.80924 115.263 1.75661C115.081 1.65865 114.873 1.62212 114.669 1.6525C114.465 1.68289 114.276 1.77855 114.131 1.92506C114.131 1.92506 102.417 15.9135 99.7051 19.4547Z" fill="url(#paint0_linear_403_1228)"/>
<path d="M119.128 20.1948L92.1135 26.9727L92.0925 26.9787L78.6744 30.3458H105.619H105.625C107.747 30.0886 109.811 29.4806 111.733 28.5468C114.39 27.2795 116.712 25.4102 118.513 23.0886C118.999 22.4685 119.442 21.8155 119.837 21.1344C119.9 21.0261 119.93 20.9015 119.923 20.7762C119.915 20.651 119.871 20.5307 119.796 20.4304C119.72 20.3301 119.617 20.2542 119.497 20.2124C119.379 20.1705 119.251 20.1644 119.128 20.1948Z" fill="url(#paint1_linear_403_1228)"/>
<path d="M121.771 10.4547C121.751 10.3446 121.705 10.2408 121.637 10.1519C121.568 10.0631 121.48 9.99155 121.378 9.94327C121.277 9.89499 121.165 9.87132 121.053 9.8742C120.94 9.87706 120.83 9.9064 120.732 9.95978C120.732 9.95978 100.998 21.0541 96.3646 23.7836C96.3307 23.804 96.3054 23.8359 96.2934 23.8735C96.2814 23.9111 96.2834 23.9518 96.2991 23.988C96.3148 24.0242 96.3431 24.0536 96.3788 24.0706C96.4146 24.0877 96.4553 24.0912 96.4935 24.0808L120.464 17.7242C120.74 17.6521 120.991 17.5061 121.191 17.3018C121.389 17.0976 121.528 16.8431 121.592 16.5658C121.684 16.1446 121.765 15.7201 121.828 15.2881C121.935 14.5428 121.993 13.7911 122 13.0382C122.002 12.1718 121.926 11.3072 121.771 10.4547Z" fill="url(#paint2_linear_403_1228)"/>
<path d="M109.962 0.0305411C109.663 0.0104932 109.361 0.000313249 109.055 0H99.0971C99.0681 0 98.9694 0.000704479 98.8308 0.00223156C100.227 1.97841 101.209 4.21447 101.717 6.57685C102.226 8.93922 102.251 11.3794 101.791 13.7516C101.784 13.7886 101.791 13.8267 101.809 13.8594C101.828 13.892 101.857 13.9174 101.892 13.9312C101.927 13.945 101.966 13.9464 102.002 13.935C102.038 13.9237 102.069 13.9005 102.089 13.8691L110.472 1.23635C110.56 1.13294 110.618 1.00726 110.639 0.873257C110.659 0.739254 110.642 0.60218 110.589 0.477256C110.536 0.352333 110.45 0.244451 110.339 0.165592C110.228 0.0867347 110.098 0.0399864 109.962 0.0305411Z" fill="url(#paint3_linear_403_1228)"/>
<path d="M44.9593 40C45.8205 39.9987 46.6515 39.6838 47.2955 39.1144V36.8054H44.8927V37.3928H46.6637V38.8331C46.1841 39.2066 45.5934 39.4104 44.9845 39.4124C43.5714 39.4124 42.6819 38.3862 42.6819 37.0043V36.9875C42.6819 35.6964 43.6047 34.6122 44.8931 34.6122C45.548 34.5908 46.1848 34.829 46.6637 35.2744L47.0877 34.7778C46.5058 34.2895 45.8989 34.0082 44.918 34.0082C43.1718 34.0082 42.0001 35.4151 42.0001 37.0036V37.0202C41.9999 38.6759 43.1305 40 44.9593 40ZM50.6453 39.9007H54.5773V39.2966H51.302V34.1073H50.6453V39.9007ZM60.0306 40C61.8012 40 63.0066 38.6013 63.0066 37.0045V36.9875C63.0066 35.3899 61.8179 34.0081 60.0472 34.0081C58.2766 34.0081 57.0712 35.4067 57.0712 37.0035V37.0201C57.0712 38.6179 58.2599 40 60.0306 40ZM60.0472 39.3958C58.7171 39.3958 57.7528 38.32 57.7528 37.004V36.9875C57.7528 35.6719 58.7005 34.6122 60.03 34.6122C61.3595 34.6122 62.3244 35.6881 62.3244 37.0041V37.0206C62.325 38.3365 61.3769 39.3956 60.0472 39.3956V39.3958ZM66.2652 39.901H68.8506C70.1225 39.901 70.9626 39.3136 70.9626 38.3202V38.3032C70.9626 37.5086 70.4057 37.1113 69.7157 36.9045C70.1729 36.7058 70.6385 36.3171 70.6385 35.5637V35.5471C70.6413 35.3756 70.6097 35.2052 70.5455 35.046C70.4812 34.8868 70.3856 34.7421 70.2644 34.6202C69.932 34.2974 69.4082 34.1071 68.7432 34.1071H66.2655L66.2652 39.901ZM66.9142 36.6897V34.6951H68.6848C69.5162 34.6951 69.9734 35.0675 69.9734 35.6386V35.6552C69.9734 36.3338 69.4247 36.6897 68.635 36.6897H66.9142ZM66.9142 39.3133V37.2694H68.7512C69.7659 37.2694 70.2969 37.6336 70.2969 38.2626V38.2792C70.2969 38.9253 69.7482 39.3137 68.8671 39.3137L66.9142 39.3133ZM73.6395 39.9006H74.3129L75.0029 38.3695H78.17L78.8511 39.9007H79.5577L76.9058 34.066H76.2907L73.6395 39.9006ZM75.2606 37.7818L76.5906 34.8273L77.9121 37.7818H75.2606ZM82.5752 39.9007H86.5072V39.2966H83.2319V34.1073H82.5752V39.9007Z" fill="white"/>
<defs>
<linearGradient id="paint0_linear_403_1228" x1="105.989" y1="-6.65454" x2="112.225" y2="33.5242" gradientUnits="userSpaceOnUse">
<stop stop-color="#0083C0"/>
<stop offset="0.519" stop-color="#094F7C"/>
<stop offset="1" stop-color="#121E3A"/>
</linearGradient>
<linearGradient id="paint1_linear_403_1228" x1="93.5243" y1="-4.25287" x2="93.9942" y2="35.7397" gradientUnits="userSpaceOnUse">
<stop stop-color="#0083C0"/>
<stop offset="0.519" stop-color="#094F7C"/>
<stop offset="1" stop-color="#121E3A"/>
</linearGradient>
<linearGradient id="paint2_linear_403_1228" x1="104.514" y1="-6.14374" x2="106.866" y2="33.6232" gradientUnits="userSpaceOnUse">
<stop stop-color="#0083C0"/>
<stop offset="0.519" stop-color="#094F7C"/>
<stop offset="1" stop-color="#121E3A"/>
</linearGradient>
<linearGradient id="paint3_linear_403_1228" x1="103.132" y1="-7.9473" x2="116.72" y2="42.4787" gradientUnits="userSpaceOnUse">
<stop stop-color="#0083C0"/>
<stop offset="0.519" stop-color="#094F7C"/>
<stop offset="1" stop-color="#121E3A"/>
</linearGradient>
</defs>
</svg>
