<svg width="25" height="25" viewBox="0 -2.5 20 24" fill="none" xmlns="http://www.w3.org/2000/svg">
<path fill-rule="evenodd" clip-rule="evenodd" d="M19.5668 2.50277C19.5668 1.12205 18.4475 0.00276696 17.0668 0.00276696H2.60681C1.33819 -0.0566811 0.228114 0.848167 0.0305656 2.10272C-0.166982 3.35728 0.611309 4.55948 1.83681 4.89277V13.8928C1.8368 15.7445 3.33504 17.2473 5.18681 17.2528H14.4668C15.3597 17.2554 16.2169 16.9026 16.8492 16.2722C17.4814 15.6418 17.8368 14.7856 17.8368 13.8928V4.89277C18.8742 4.5603 19.575 3.59209 19.5668 2.50277ZM14.4768 15.7428H5.19681C4.70616 15.7428 4.23561 15.5479 3.88866 15.2009C3.54172 14.854 3.34681 14.3834 3.34681 13.8928V5.00277H16.3468V13.8928C16.3468 14.3869 16.1492 14.8605 15.7979 15.208C15.4466 15.5556 14.9709 15.7481 14.4768 15.7428ZM2.60681 3.50277H17.0668C17.6191 3.50277 18.0668 3.05505 18.0668 2.50277C18.0668 1.95048 17.6191 1.50277 17.0668 1.50277H2.60681C2.05453 1.50277 1.60681 1.95048 1.60681 2.50277C1.60681 3.05505 2.05453 3.50277 2.60681 3.50277Z" fill="#F2F2F2"/>
<path d="M12.0868 7.63277H7.58681C7.1726 7.63277 6.83681 7.96855 6.83681 8.38277C6.83681 8.79698 7.1726 9.13277 7.58681 9.13277H12.0868C12.501 9.13277 12.8368 8.79698 12.8368 8.38277C12.8368 7.96855 12.501 7.63277 12.0868 7.63277Z" fill="#F2F2F2"/>
</svg>
