<svg width="24" height="24" viewBox="0 0 24 24" fill="none" xmlns="http://www.w3.org/2000/svg">
<path fill-rule="evenodd" clip-rule="evenodd" d="M7.79 15.27L8.52 11.86C8.62628 11.3861 8.86566 10.9525 9.21 10.61L15.88 4.00001C16.5564 3.31098 17.4747 2.91279 18.44 2.89001C19.168 2.87957 19.87 3.16038 20.39 3.67001C21.5262 5.01247 21.3795 7.01722 20.06 8.18001L13.39 14.85C13.0475 15.1943 12.6139 15.4337 12.14 15.54L8.73 16.27H8.54C8.29071 16.2795 8.05261 16.1661 7.90292 15.9666C7.75324 15.767 7.71103 15.5067 7.79 15.27ZM10.27 11.68C10.1299 11.8158 10.0326 11.9896 9.99 12.18L9.5 14.51L11.83 14.01C12.0204 13.9674 12.1942 13.8701 12.33 13.73L19 7.06001C19.7307 6.47503 19.8757 5.42048 19.33 4.66001C19.0911 4.43171 18.7703 4.30918 18.44 4.32001C17.8706 4.34287 17.3325 4.5868 16.94 5.00001L10.27 11.68Z" fill="#343434"/>
<path d="M19.91 10.93C19.498 10.9354 19.1654 11.268 19.16 11.68V17.37C19.1734 18.1743 18.8633 18.9503 18.2992 19.5237C17.7351 20.0972 16.9644 20.4201 16.16 20.42H6.63C4.96737 20.3874 3.63512 19.0329 3.63 17.37V7.88001C3.6573 6.2151 5.01487 4.87978 6.68 4.88001H12.37C12.7842 4.88001 13.12 4.54422 13.12 4.13001C13.12 3.71579 12.7842 3.38001 12.37 3.38001H6.63C4.1365 3.37985 2.1074 5.38666 2.08 7.88001V17.37C2.08 19.8829 4.11711 21.92 6.63 21.92H16.12C18.629 21.9145 20.66 19.879 20.66 17.37V11.68C20.6546 11.268 20.322 10.9354 19.91 10.93Z" fill="#343434"/>
</svg>
