<svg width="20" height="20" viewBox="0 0 20 20" fill="none" xmlns="http://www.w3.org/2000/svg">
<g id="Interface essential/Trash">
<g id="Icon">
<path d="M15.6583 5.83333C15.2947 5.83333 14.9999 6.12808 14.9999 6.49166V13.8583C14.9999 15.4093 13.7426 16.6667 12.1916 16.6667H7.45825C5.90725 16.6667 4.64992 15.4093 4.64992 13.8583V6.49166C4.64992 6.12808 4.35517 5.83333 3.99159 5.83333C3.628 5.83333 3.33325 6.12808 3.33325 6.49166V13.8583C3.3561 16.1432 5.21491 17.9834 7.49992 17.9833H12.2333C14.502 17.9608 16.3357 16.1271 16.3583 13.8583V6.49166C16.3586 6.3096 16.2836 6.13551 16.1509 6.01078C16.0183 5.88605 15.84 5.82181 15.6583 5.83333Z" fill="white"/>
<path fill-rule="evenodd" clip-rule="evenodd" d="M15.6583 4.65H3.99159C3.628 4.65 3.33325 4.35525 3.33325 3.99166C3.33325 3.62808 3.628 3.33333 3.99159 3.33333H6.19992L7.18325 2.26666C7.55915 1.88451 8.07221 1.66848 8.60825 1.66666H11.0416C11.5698 1.66666 12.0764 1.87649 12.4499 2.25L13.4499 3.33333H15.6583C16.0218 3.33333 16.3166 3.62808 16.3166 3.99166C16.3166 4.35525 16.0218 4.65 15.6583 4.65ZM11.0416 2.98333H8.60825C8.44166 2.98339 8.28112 3.04582 8.15825 3.15833L7.99992 3.325H11.6499L11.4916 3.15833C11.3696 3.04438 11.2085 2.98172 11.0416 2.98333Z" fill="white"/>
<path d="M6.69992 7.325V9.825C6.69992 10.1702 6.97974 10.45 7.32492 10.45C7.6701 10.45 7.94992 10.1702 7.94992 9.825V7.325C7.94992 6.97982 7.6701 6.7 7.32492 6.7C6.97974 6.7 6.69992 6.97982 6.69992 7.325Z" fill="white"/>
<path d="M9.19992 7.325V13.9917C9.19992 14.3368 9.47974 14.6167 9.82492 14.6167C10.1701 14.6167 10.4499 14.3368 10.4499 13.9917V7.325C10.4499 6.97982 10.1701 6.7 9.82492 6.7C9.47974 6.7 9.19992 6.97982 9.19992 7.325Z" fill="white"/>
<path d="M11.6999 7.325V9.825C11.6999 10.1702 11.9797 10.45 12.3249 10.45C12.6701 10.45 12.9499 10.1702 12.9499 9.825V7.325C12.9499 6.97982 12.6701 6.7 12.3249 6.7C11.9797 6.7 11.6999 6.97982 11.6999 7.325Z" fill="white"/>
</g>
</g>
</svg>
