<svg width="24" height="24" viewBox="0 0 24 24" fill="none" xmlns="http://www.w3.org/2000/svg">
<path fill-rule="evenodd" clip-rule="evenodd" d="M21.5668 5.50277C21.5668 4.12205 20.4475 3.00277 19.0668 3.00277H4.60681C3.33819 2.94332 2.22811 3.84817 2.03057 5.10272C1.83302 6.35728 2.61131 7.55948 3.83681 7.89277V16.8928C3.8368 18.7445 5.33504 20.2473 7.18681 20.2528H16.4668C17.3597 20.2554 18.2169 19.9026 18.8492 19.2722C19.4814 18.6418 19.8368 17.7856 19.8368 16.8928V7.89277C20.8742 7.5603 21.575 6.59209 21.5668 5.50277ZM16.4768 18.7428H7.19681C6.70616 18.7428 6.23561 18.5479 5.88866 18.2009C5.54172 17.854 5.34681 17.3834 5.34681 16.8928V8.00277H18.3468V16.8928C18.3468 17.3869 18.1492 17.8605 17.7979 18.208C17.4466 18.5556 16.9709 18.7481 16.4768 18.7428ZM4.60681 6.50277H19.0668C19.6191 6.50277 20.0668 6.05505 20.0668 5.50277C20.0668 4.95048 19.6191 4.50277 19.0668 4.50277H4.60681C4.05453 4.50277 3.60681 4.95048 3.60681 5.50277C3.60681 6.05505 4.05453 6.50277 4.60681 6.50277Z" fill="#343434"/>
<path d="M14.0868 10.6328H9.58681C9.1726 10.6328 8.83681 10.9686 8.83681 11.3828C8.83681 11.797 9.1726 12.1328 9.58681 12.1328H14.0868C14.501 12.1328 14.8368 11.797 14.8368 11.3828C14.8368 10.9686 14.501 10.6328 14.0868 10.6328Z" fill="#343434"/>
</svg>
