<svg width="24" height="24" viewBox="0 -1 20 24" fill="none" xmlns="http://www.w3.org/2000/svg">
<path fill-rule="evenodd" clip-rule="evenodd" d="M5.79007 13.27L6.52007 9.86001C6.62635 9.38614 6.86574 8.95247 7.21007 8.61001L13.8801 2.00001C14.5565 1.31098 15.4748 0.912788 16.4401 0.890005C17.1681 0.879574 17.8701 1.16038 18.3901 1.67001C19.5263 3.01247 19.3796 5.01722 18.0601 6.18001L11.3901 12.85C11.0476 13.1943 10.6139 13.4337 10.1401 13.54L6.73007 14.27H6.54007C6.29078 14.2795 6.05268 14.1661 5.903 13.9666C5.75332 13.767 5.71111 13.5067 5.79007 13.27ZM8.27007 9.68001C8.12996 9.81579 8.03263 9.98959 7.99007 10.18L7.50007 12.51L9.83007 12.01C10.0205 11.9674 10.1943 11.8701 10.3301 11.73L17.0001 5.06001C17.7308 4.47503 17.8758 3.42048 17.3301 2.66001C17.0911 2.43171 16.7704 2.30918 16.4401 2.32001C15.8706 2.34287 15.3326 2.5868 14.9401 3.00001L8.27007 9.68001Z" fill="#F2F2F2"/>
<path d="M17.9101 8.93001C17.4981 8.93539 17.1655 9.26804 17.1601 9.68001V15.37C17.1735 16.1743 16.8633 16.9503 16.2993 17.5237C15.7352 18.0972 14.9645 18.4201 14.1601 18.42H4.63008C2.96745 18.3874 1.63519 17.0329 1.63008 15.37V5.88001C1.65738 4.2151 3.01494 2.87978 4.68008 2.88001H10.3701C10.7843 2.88001 11.1201 2.54422 11.1201 2.13001C11.1201 1.71579 10.7843 1.38001 10.3701 1.38001H4.63008C2.13658 1.37985 0.107479 3.38666 0.0800781 5.88001V15.37C0.0800781 17.8829 2.11718 19.92 4.63008 19.92H14.1201C16.6291 19.9145 18.6601 17.879 18.6601 15.37V9.68001C18.6547 9.26804 18.322 8.93539 17.9101 8.93001Z" fill="#F2F2F2"/>
</svg>
