<svg width="20" height="20" viewBox="0 0 20 20" fill="none" xmlns="http://www.w3.org/2000/svg">
<g id="Interface essential/Pluse">
<path id="Icon" d="M16.4583 9.16667H10.4167V3.125C10.4167 2.77982 10.1368 2.5 9.79167 2.5C9.44649 2.5 9.16667 2.77982 9.16667 3.125V9.16667H3.125C2.77982 9.16667 2.5 9.44649 2.5 9.79167C2.5 10.1368 2.77982 10.4167 3.125 10.4167H9.16667V16.4583C9.16667 16.8035 9.44649 17.0833 9.79167 17.0833C10.1368 17.0833 10.4167 16.8035 10.4167 16.4583V10.4167H16.4583C16.8035 10.4167 17.0833 10.1368 17.0833 9.79167C17.0833 9.44649 16.8035 9.16667 16.4583 9.16667Z" fill="white"/>
</g>
</svg>
